<svg id="Layer_1" data-name="Layer 1" xmlns="http://www.w3.org/2000/svg" viewBox="0 0 100 100">
  <defs>
    <style>
      .cls-1 {
        fill: #ccdacd;
      }

      .cls-2 {
        fill: #fff;
      }

      .cls-3 {
        fill: #fdfefd;
      }

      .cls-4 {
        fill: #d2ded3;
      }

      .cls-5 {
        fill: #1f5a2d;
      }

      .cls-6 {
        fill: none;
        stroke: #1f5a2d;
        stroke-miterlimit: 10;
      }

      .cls-7 {
        fill: #d9e3da;
      }

      .cls-8 {
        fill: #eaefea;
      }
    </style>
  </defs>
  <g id="Layer_1-2" data-name="Layer 1-2">
    <g>
      <path class="cls-2" d="M32.37,85.19c-6.13-1.96-11.54-5.14-16.19-9.59-6.37-6.09-10.47-13.46-12.26-22.11-.68-3.3-.97-6.64-.81-10,.47-10.27,4.13-19.25,11.08-26.82,6.02-6.56,13.43-10.76,22.12-12.67,3.31-.73,6.67-1.04,10.06-.91,10.53,.4,19.72,4.14,27.44,11.32,6.13,5.69,10.16,12.65,12.17,20.77,.69,2.78,1.06,5.61,1.15,8.48,.22,6.88-1.13,13.43-4.11,19.64-1.96,4.09-4.53,7.77-7.69,11.03-3.4,3.52-7.3,6.36-11.69,8.53-3.79,1.87-7.78,3.12-11.96,3.78-2.68,.42-5.37,.58-8.07,.49-2.12-.07-4.22-.3-6.31-.7-.07-.03-3.87-.9-4.95-1.24h0Z"/>
      <path class="cls-5" d="M7.08,45.13c-.04-20.82,17.05-38.01,38.34-37.65,20.43,.35,37.22,17.13,36.97,38.14-.25,20.63-17.14,37.34-37.99,37.17-20.66-.17-37.36-17.01-37.32-37.66h0Z"/>
      <path class="cls-2" d="M7.61,45.12c0-20.49,16.8-37.41,37.7-37.1,20.19,.3,36.79,16.89,36.54,37.59-.24,20.3-16.88,36.81-37.41,36.66-20.39-.15-36.85-16.81-36.83-37.14h0Z"/>
      <path class="cls-2" d="M13.41,18.66c.36,0,.66,.33,.62,.66-.04,.3-.24,.49-.42,.71-.07,.09-.13,.02-.19-.03-.13-.11-.28-.2-.39-.33-.12-.14-.44-.17-.33-.42,.13-.3,.37-.55,.71-.59h0Z"/>
      <path class="cls-3" d="M21.8,12.3s.13,.03,.21,.07c.31,.16,.32,.25,.04,.44-.19,.14-.39,.26-.57,.41-.19,.16-.24,.06-.29-.12-.11-.42,.18-.82,.61-.81Z"/>
      <path class="cls-5" d="M44.12,81.43c-9.14-.14-17.6-3.48-24.62-10.25-6.45-6.22-9.96-13.9-10.95-22.77-.71-11.1,2.56-20.8,10.4-28.76,7.1-7.21,15.84-10.82,25.95-10.78,9.85,.04,18.35,3.6,25.38,10.51,6.54,6.43,9.89,14.36,10.76,23.42,.23,7.21-1.17,14.05-4.8,20.35-3.26,5.65-7.72,10.13-13.37,13.41-5.6,3.25-11.67,4.81-18.74,4.86h0Z"/>
      <path class="cls-2" d="M9.65,47c.27,.55,.36,1.12,.48,1.69,.38,1.92,.69,3.85,1.35,5.7,.45,1.27,.94,2.53,1.56,3.74,.23,.44,.49,.86,.94,1.12,.71,.4,1.63,.04,1.79-.71,.07-.31-.02-.6-.17-.87-.47-.86-.89-1.74-1.29-2.63-.56-1.24-.83-2.55-1.06-3.87-.4-2.26-.73-4.53-.69-6.82,.05-3.52,.76-6.91,2.26-10.11,.33-.7,.66-1.4,.82-2.16,.04-.19,.06-.38,.04-.58-.08-.76-.84-1.15-1.5-.78-.28,.16-.46,.41-.64,.66-1.5,2.12-2.32,4.51-2.89,7.01-.29,1.26-.61,2.51-.8,3.78-.07,.47-.11,.94-.17,1.41-.02,.17-.06,.33-.17,.5-.46-.36-.51-.87-.53-1.37-.06-1.96,.34-3.87,.79-5.77,1.47-6.22,4.4-11.66,8.76-16.33,3.41-3.65,7.4-6.47,11.99-8.44,.58-.25,1.24-.22,1.87-.17,.22,.02,.18,.13,.07,.25-.19,.2-.42,.37-.65,.53-1.08,.76-2.23,1.42-3.35,2.12-2.02,1.26-3.79,2.83-5.5,4.47-1.66,1.59-3.25,3.23-4.59,5.1-.75,1.04-1.45,2.11-2.15,3.18-.33,.5-.5,1.07-.49,1.68,0,.44,.17,.8,.58,1.01,.4,.21,.78,.09,1.12-.15,.4-.28,.71-.66,.97-1.07,.93-1.46,2-2.8,3.14-4.09,2.49-2.82,5.19-5.43,8.27-7.61,2.46-1.74,5.1-3.13,8.04-3.9,2.62-.69,5.29-.91,7.99-.82,3.52,.11,6.93,.78,10.22,2.03,2.69,1.02,5.12,2.47,7.28,4.37,2.07,1.81,4.09,3.67,5.83,5.8,1.17,1.43,2.18,2.99,3.24,4.5,.36,.51,.78,.96,1.48,.95,.7-.01,1.18-.55,1.13-1.25-.02-.27-.08-.53-.21-.77-1.22-2.2-2.49-4.39-4.12-6.3-3.15-3.67-6.88-6.59-11.34-8.53-.64-.28-1.26-.6-1.88-.92-.22-.11-.44-.23-.62-.43,.32-.19,.67-.14,1-.17,.37-.03,.73,0,1.09,.16,9.55,4.31,16.15,11.36,19.73,21.21,1.04,2.85,1.64,5.81,1.87,8.83,.04,.5,.04,1.01-.13,1.5-.05,.13-.09,.33-.22,.33-.15,0-.15-.21-.16-.34-.1-.66-.14-1.33-.27-1.98-.49-2.45-1-4.9-1.92-7.24-.46-1.17-1.14-2.21-1.82-3.26-.1-.16-.23-.29-.38-.39-.34-.23-.7-.36-1.08-.14-.4,.22-.59,.58-.57,1.04,.03,.56,.22,1.07,.45,1.57,.64,1.41,1.28,2.81,1.68,4.31,.65,2.46,1.12,4.95,.99,7.51-.14,2.93-.48,5.85-1.29,8.69-.36,1.27-1,2.44-1.61,3.61-.04,.09-.09,.17-.14,.26-.29,.57-.24,1.08,.14,1.42,.45,.4,1.07,.44,1.58,.1,.5-.33,.75-.85,1-1.36,1.27-2.62,2.12-5.36,2.58-8.23,.12-.74,.27-1.48,.49-2.2,.04-.12,.06-.25,.18-.35,.3,.36,.37,.78,.42,1.22,.07,.63-.05,1.24-.14,1.86-.54,3.9-1.7,7.62-3.47,11.14-1.66,3.3-3.78,6.27-6.36,8.92-2.99,3.08-6.41,5.55-10.28,7.4-.71,.34-1.49,.46-2.29,.46-.14,0-.32,0-.36-.15-.04-.13,.11-.22,.2-.31,.49-.44,1.06-.77,1.63-1.1,1.13-.67,2.28-1.29,3.36-2.03,1.58-1.09,2.99-2.38,4.38-3.71,1.63-1.56,3.2-3.16,4.52-4.99,.79-1.09,1.53-2.21,2.27-3.33,.32-.49,.49-1.05,.48-1.65,0-.44-.18-.8-.58-1.01-.39-.2-.76-.09-1.09,.14-.42,.28-.73,.67-1,1.09-.92,1.44-1.97,2.77-3.1,4.04-2.89,3.25-6.01,6.24-9.7,8.58-2.99,1.9-6.22,3.14-9.74,3.58-2.82,.35-5.64,.31-8.45-.1-3.17-.46-6.2-1.36-9.07-2.78-1.8-.89-3.42-2.05-4.94-3.37-1.98-1.72-3.88-3.5-5.57-5.51-1.25-1.49-2.3-3.14-3.43-4.72-.2-.27-.41-.53-.69-.71-.47-.31-1.04-.32-1.46-.03-.46,.32-.52,.79-.43,1.3,.04,.24,.13,.45,.25,.66,1.2,2.12,2.42,4.25,4.01,6.11,2.68,3.11,5.76,5.76,9.45,7.63,1.11,.56,2.22,1.12,3.33,1.69,.32,.17,.64,.36,.93,.58,.17,.13,.15,.22-.05,.27-.4,.1-.81,.08-1.22,.09-1.13,.03-2.09-.46-3.06-.95-3.49-1.75-6.63-3.99-9.38-6.75-5.12-5.15-8.42-11.29-9.88-18.41-.22-1.08-.42-2.18-.47-3.28-.03-.66,.12-1.31,.63-1.85h0Z"/>
      <path class="cls-2" d="M32.28,78.79c.28-.04,.57-.08,.85-.14,.28-.06,.54-.18,.62-.49,.08-.33-.14-.52-.36-.7-.46-.36-.98-.62-1.49-.89-1.63-.83-3.3-1.57-4.83-2.56-3.91-2.54-7.23-5.68-9.64-9.71-.52-.87-1.07-1.71-1.55-2.6-.13-.25-.26-.5-.26-.79-.01-.52,.43-.83,.92-.63,.33,.13,.55,.4,.75,.69,1.08,1.53,2.09,3.11,3.28,4.55,1.72,2.1,3.71,3.95,5.75,5.73,1.65,1.44,3.43,2.69,5.41,3.64,2.69,1.29,5.52,2.14,8.46,2.6,1.76,.28,3.52,.41,5.3,.41,3.75-.01,7.38-.65,10.78-2.29,2.93-1.41,5.54-3.27,7.94-5.45,2.71-2.46,5.22-5.09,7.36-8.06,.3-.41,.52-.86,.85-1.25,.2-.23,.39-.46,.66-.61,.34-.19,.64-.07,.75,.31,.08,.28,.01,.55-.06,.82-.1,.36-.27,.69-.49,1.01-1.31,1.94-2.59,3.9-4.22,5.61-1.95,2.04-3.96,4.01-6.22,5.7-1.31,.98-2.78,1.71-4.17,2.56-.41,.25-.83,.51-1.19,.83-.28,.24-.57,.51-.45,.93,.11,.39,.47,.46,.82,.54-8.49,3.24-17.02,3.32-25.57,.24h0Z"/>
      <path class="cls-2" d="M32.31,11.46c7.06-2.76,16.49-3.21,24.87,0-.13,.12-.3,.09-.45,.14-.55,.2-.64,.61-.2,.99,.5,.44,1.12,.68,1.71,.96,1.7,.82,3.44,1.58,5.02,2.63,3.86,2.57,7.14,5.72,9.52,9.74,.48,.81,.99,1.61,1.45,2.43,.13,.23,.23,.46,.26,.72,.02,.25-.02,.48-.24,.63-.23,.16-.48,.17-.73,.05-.28-.14-.48-.36-.65-.61-.86-1.22-1.74-2.43-2.59-3.66-.97-1.41-2.18-2.6-3.38-3.81-1.38-1.39-2.83-2.7-4.37-3.92-2.79-2.21-5.98-3.6-9.39-4.52-3.02-.81-6.1-1.13-9.22-1.08-5.54,.09-10.47,1.9-14.91,5.17-1.7,1.25-3.21,2.69-4.76,4.11-2.18,2.01-4.05,4.27-5.81,6.65-.31,.41-.53,.88-.89,1.27-.15,.16-.29,.31-.48,.43-.43,.27-.8,.08-.83-.43-.03-.52,.15-.99,.42-1.43,2.34-3.88,5.38-7.15,8.78-10.11,1.78-1.55,3.78-2.76,5.77-3.99,.46-.28,.91-.58,1.32-.92,.11-.09,.22-.18,.31-.28,.17-.2,.33-.42,.24-.7-.09-.3-.36-.38-.63-.42-.04,0-.08-.01-.14-.02h0Z"/>
      <path class="cls-2" d="M8.83,44.16c.27,.28,.5,.53,.85,.42,.35-.11,.41-.44,.48-.75,.18-.82,.17-1.67,.35-2.49,.48-2.19,.94-4.39,1.73-6.49,.45-1.19,1.14-2.26,1.82-3.33,.23-.36,.56-.51,.8-.4,.27,.13,.37,.44,.26,.88-.2,.82-.58,1.57-.93,2.33-.92,1.97-1.44,4.06-1.81,6.2-.23,1.32-.4,2.64-.35,3.98,.11,3.26,.46,6.5,1.39,9.64,.37,1.25,1,2.39,1.6,3.54,.04,.09,.09,.17,.14,.26,.13,.24,.19,.49-.03,.71-.22,.23-.58,.3-.86,.15-.34-.18-.54-.49-.71-.81-.89-1.71-1.55-3.51-2.08-5.36-.41-1.43-.59-2.9-.91-4.35-.1-.46-.19-.93-.38-1.36-.26-.57-.65-.62-1.05-.14-.07,.09-.14,.19-.26,.34-.07-.53-.05-1-.06-1.47,0-.47,0-.94,0-1.49h0Z"/>
      <path class="cls-2" d="M80.65,44.37c0,.82,.02,1.62-.04,2.41-.1,.04-.11-.05-.15-.08-.39-.4-.74-.34-.97,.17-.23,.51-.34,1.06-.44,1.61-.39,1.99-.71,4-1.42,5.91-.42,1.16-.87,2.31-1.43,3.41-.17,.33-.35,.65-.64,.88-.33,.26-.7,.25-1-.01-.21-.19-.23-.44,0-.82,1.49-2.54,2.29-5.31,2.64-8.22,.25-2.08,.55-4.16,.42-6.27-.21-3.28-.89-6.46-2.32-9.45-.28-.58-.54-1.17-.71-1.79-.15-.56-.06-.89,.26-1.02,.26-.11,.57,.13,.86,.54,1.71,2.39,2.46,5.15,3.1,7.96,.31,1.35,.56,2.71,.7,4.09,0,.07,.03,.15,.04,.22,.19,.71,.49,.84,1.12,.47h0Z"/>
      <path class="cls-5" d="M14.87,46.31c.06-4.29,.82-8.43,2.8-12.29,.78-1.51,1.7-2.91,2.83-4.18,.43-.49,.94-.85,1.58-1,.93-.22,1.72,.6,1.5,1.53-.13,.52-.44,.93-.72,1.36-1.82,2.74-3.24,5.66-3.98,8.88-.12,.53-.23,1.06-.06,1.62,.27,.9,.85,1.45,1.74,1.67,.67,.17,1.36,.22,2.05,.14,.95-.11,1.56-.67,1.92-1.52,.44-1.03,.78-2.09,1.23-3.11,1-2.27,2.24-4.41,3.85-6.3,.95-1.11,2.14-1.96,3.33-2.79,1.64-1.15,3.27-2.3,5.1-3.14,.98-.45,1.99-.81,3.03-1.08,.35-.09,.7-.21,1.03-.36,.24-.11,.44-.26,.49-.56,.07-.48-.14-.72-.62-.71-.91,.03-1.74,.37-2.58,.64-2.85,.91-5.48,2.27-7.82,4.12-2.34,1.85-4.36,4-5.73,6.68-.79,1.55-1.47,3.15-2.2,4.73-.12,.25-.23,.51-.37,.75-.34,.58-.87,.77-1.48,.53-.57-.22-.83-.71-.69-1.36,.15-.72,.43-1.39,.69-2.07,.79-2.04,1.61-4.07,2.88-5.89,2.41-3.47,5.47-6.18,9.22-8.13,2.21-1.15,4.46-2.21,6.88-2.88,2.07-.57,4.18-.68,6.3-.44,4.31,.49,8.12,2.17,11.43,4.98,2.85,2.42,5.45,5.07,7.57,8.16,1.14,1.66,2.11,3.42,2.64,5.38,.05,.18,.09,.36,.11,.54,.09,.69-.1,1.07-.65,1.32-.64,.28-1.2,.16-1.62-.36-.27-.33-.48-.7-.61-1.09-.53-1.64-1.49-3.04-2.49-4.41-1.11-1.53-2.17-3.1-3.54-4.42-2.04-1.97-4.19-3.8-6.66-5.21-1.28-.73-2.63-1.25-4.08-1.54-.48-.09-.96-.11-1.44,.03-.07,.02-.15,.04-.21,.07-.27,.12-.52,.27-.5,.6,.01,.3,.29,.38,.52,.45,.38,.1,.77,.18,1.16,.27,1.65,.42,3.18,1.15,4.59,2.06,3.52,2.29,6.54,5.09,8.79,8.68,.59,.94,.91,1.99,1.31,3,.31,.77,.66,1.51,1.04,2.25,.38,.73,.95,1.14,1.76,1.24,1.08,.13,2.12,.07,3.08-.5,.75-.45,1.12-1.09,1.15-1.95,.06-1.65-.35-3.19-1.07-4.66-.6-1.22-1.31-2.36-2.08-3.48-.32-.47-.62-.96-.74-1.53-.1-.43-.09-.84,.28-1.16,.38-.33,.8-.38,1.26-.19,.68,.28,1.16,.8,1.64,1.32,1.02,1.11,1.77,2.4,2.47,3.72,.82,1.54,1.53,3.12,2.01,4.8,.32,1.09,.38,2.22,.43,3.35,.16,3.43-.26,6.78-1.29,10.05-.92,2.89-2.32,5.52-4.33,7.8-.41,.46-.9,.81-1.5,.97-.98,.26-1.8-.57-1.55-1.55,.1-.41,.32-.75,.55-1.08,1.84-2.72,3.3-5.63,4.08-8.84,.14-.57,.3-1.14,.17-1.75-.23-1.01-.85-1.61-1.85-1.84-.62-.15-1.26-.19-1.89-.13-.99,.09-1.64,.65-2.01,1.54-.49,1.18-.88,2.4-1.42,3.55-2.15,4.56-5.28,8.23-9.74,10.67-1.84,1-3.8,1.75-5.76,2.5-.22,.08-.45,.16-.65,.28-.33,.18-.44,.54-.31,.89,.08,.23,.27,.29,.49,.29,.54,0,1.06-.13,1.58-.28,3.21-.95,6.21-2.35,8.85-4.42,2.35-1.84,4.38-3.99,5.76-6.66,.77-1.48,1.42-3.03,2.12-4.55,.14-.31,.29-.62,.45-.93,.3-.58,.81-.83,1.38-.67,.64,.17,.98,.7,.84,1.35-.19,.91-.55,1.76-.88,2.62-.82,2.11-1.75,4.15-3.1,5.99-2.5,3.41-5.67,5.99-9.44,7.88-2.13,1.07-4.3,2.06-6.62,2.64-2.02,.51-4.07,.58-6.12,.32-4.61-.59-8.62-2.51-12.04-5.66-1.54-1.42-3.11-2.81-4.47-4.42-2.18-2.57-3.73-5.45-4.46-8.75-.11-.48-.17-.95-.02-1.43,.28-.91,1.23-1.15,1.89-.46,.49,.51,.8,1.14,1.07,1.79,.57,1.37,1.17,2.72,1.85,4.04,.93,1.81,2.29,3.3,3.65,4.77,2.05,2.22,4.38,4.09,7.06,5.52,1.22,.65,2.51,1.11,3.88,1.33,.43,.07,.86,.03,1.27-.1,.13-.04,.26-.11,.37-.19,.34-.26,.3-.63-.08-.81-.37-.18-.78-.22-1.18-.31-1.38-.29-2.65-.88-3.86-1.58-3.22-1.87-6.2-4.07-8.4-7.13-1.15-1.59-2.18-3.28-2.76-5.21-.22-.75-.62-1.44-.96-2.14-.41-.84-1.06-1.29-1.98-1.38-.98-.09-1.92-.02-2.82,.46-.88,.47-1.26,1.2-1.27,2.18-.02,1.63,.4,3.14,1.12,4.59,.54,1.09,1.17,2.12,1.86,3.13,.3,.44,.6,.89,.8,1.4,.09,.23,.16,.47,.17,.72,.01,.78-.65,1.3-1.4,1.09-.46-.12-.82-.41-1.17-.72-1.11-1.01-1.94-2.24-2.66-3.54-1.09-1.94-2.06-3.94-2.59-6.12-.28-1.13-.29-2.3-.34-3.46-.01-.26,0-.52,0-.77h0Z"/>
      <path class="cls-5" d="M44.36,74.93c-4.21-.02-8.61-1.38-12.71-3.8-3.06-1.8-5.77-4.04-8.1-6.73-.39-.45-.58-.98-.61-1.56-.05-1.05,.96-1.72,1.93-1.28,.59,.27,1.04,.72,1.46,1.19,1.39,1.57,2.89,3.01,4.55,4.28,2.83,2.17,5.92,3.8,9.41,4.62,3.9,.92,7.73,.64,11.53-.59,2.58-.83,4.83-2.25,7-3.83,1.81-1.31,3.34-2.9,4.83-4.55,.3-.34,.62-.66,1.07-.79,.9-.26,1.64,.42,1.44,1.33-.07,.32-.23,.6-.43,.85-1.88,2.41-4.09,4.47-6.6,6.21-2.92,2.03-6.09,3.46-9.58,4.17-1.52,.31-3.06,.45-5.18,.45h0Z"/>
      <path class="cls-5" d="M44.87,15.71c4.84,.03,9.29,1.41,13.42,3.88,3.02,1.8,5.7,4.03,8,6.7,.39,.45,.57,.99,.58,1.57,.03,1.02-1,1.66-1.95,1.22-.56-.26-.99-.67-1.39-1.13-2.01-2.28-4.26-4.28-6.83-5.9-2.71-1.71-5.62-2.9-8.8-3.38-3.23-.49-6.4-.16-9.52,.78-2.84,.86-5.31,2.4-7.66,4.16-1.65,1.23-3.06,2.7-4.44,4.21-.27,.3-.53,.63-.91,.81-.48,.23-.95,.25-1.39-.1-.35-.28-.45-.76-.28-1.3,.08-.25,.22-.46,.38-.67,1.32-1.7,2.82-3.22,4.47-4.59,3.21-2.67,6.79-4.62,10.86-5.61,1.6-.39,3.65-.64,5.46-.64h0Z"/>
      <path class="cls-2" d="M15.39,46.31c.06-4.15,.78-8.16,2.67-11.9,.77-1.52,1.7-2.94,2.83-4.22,.35-.4,.76-.69,1.27-.85,.29-.09,.52-.02,.73,.2,.2,.22,.27,.45,.18,.74-.13,.4-.38,.75-.61,1.09-1.82,2.72-3.25,5.63-4.03,8.83-.17,.71-.34,1.42-.12,2.16,.31,1.05,.98,1.71,2.03,2,.79,.22,1.59,.27,2.4,.17,1.08-.14,1.81-.77,2.23-1.75,.38-.89,.69-1.8,1.06-2.7,.94-2.3,2.17-4.43,3.73-6.37,.77-.96,1.73-1.73,2.73-2.45,1.6-1.16,3.21-2.31,4.96-3.24,1.25-.66,2.57-1.15,3.93-1.5,.34-.09,.68-.21,.99-.37,.61-.31,.84-.81,.69-1.47-.09-.43-.43-.71-.9-.74-.67-.04-1.3,.13-1.93,.32-3.24,.96-6.26,2.38-8.93,4.48-2.55,2-4.71,4.34-6.14,7.28-.79,1.63-1.53,3.29-2.29,4.93-.2,.44-.46,.6-.78,.52-.46-.12-.62-.39-.5-.88,.15-.62,.38-1.21,.61-1.8,.76-1.97,1.53-3.94,2.73-5.71,2.3-3.37,5.21-6.06,8.84-7.98,2.41-1.27,4.85-2.45,7.5-3.12,1.88-.47,3.79-.55,5.7-.33,4.06,.47,7.68,2,10.84,4.62,2.85,2.35,5.42,4.97,7.56,7.99,1.19,1.69,2.21,3.48,2.77,5.5,.05,.19,.09,.38,.12,.57,.05,.3,0,.56-.31,.7-.38,.18-.7,.16-.95-.09-.26-.25-.42-.57-.56-.89-.36-.81-.6-1.68-1.09-2.43-1.39-2.09-2.73-4.23-4.48-6.06-2.44-2.56-5.11-4.83-8.29-6.43-1.23-.62-2.53-1.08-3.92-1.21-.55-.05-1.1,0-1.6,.28-.4,.22-.64,.55-.63,1.01,.02,.47,.33,.72,.74,.88,.34,.13,.7,.19,1.06,.27,1.91,.43,3.64,1.31,5.24,2.39,2.13,1.43,4.07,3.11,5.76,5.04,1.59,1.82,2.9,3.8,3.64,6.13,.23,.74,.62,1.41,.96,2.11,.47,.97,1.22,1.53,2.3,1.64,1.1,.11,2.16,.05,3.16-.48,1.08-.57,1.59-1.45,1.59-2.66,.01-1.61-.37-3.13-1.06-4.57-.61-1.27-1.35-2.47-2.14-3.63-.3-.44-.58-.88-.71-1.4-.06-.24-.1-.49,.13-.68,.24-.2,.5-.2,.78-.06,.48,.24,.86,.61,1.22,.99,1.1,1.15,1.9,2.52,2.62,3.93,.83,1.6,1.6,3.24,2.02,5,.26,1.09,.3,2.21,.33,3.33,.07,3.6-.43,7.12-1.71,10.5-.89,2.35-2.12,4.5-3.78,6.4-.3,.34-.65,.59-1.06,.78-.32,.14-.64,.19-.93-.09-.27-.26-.31-.53-.13-.95,.14-.34,.36-.64,.56-.94,1.82-2.72,3.24-5.63,4.02-8.83,.17-.69,.32-1.37,.12-2.1-.31-1.1-1-1.77-2.09-2.05-.73-.19-1.47-.24-2.21-.17-1.22,.12-2,.83-2.44,1.94-.49,1.24-.93,2.49-1.49,3.7-1.14,2.45-2.68,4.65-4.56,6.56-1.99,2.02-4.34,3.57-6.99,4.65-1.28,.52-2.55,1.07-3.85,1.54-.53,.19-.96,.49-1.04,1.11-.1,.74,.32,1.24,1.07,1.25,.73,.01,1.42-.21,2.11-.42,3.24-.99,6.23-2.46,8.88-4.58,2.28-1.83,4.26-3.96,5.62-6.57,.8-1.53,1.47-3.13,2.19-4.69,.14-.29,.27-.58,.42-.87,.19-.37,.48-.48,.82-.36,.37,.13,.5,.37,.4,.8-.28,1.1-.73,2.13-1.13,3.18-1.63,4.3-4.34,7.79-8.05,10.45-3.24,2.32-6.79,4.07-10.68,5.06-1.66,.43-3.37,.48-5.06,.32-4.6-.41-8.61-2.22-12.06-5.29-1.46-1.3-2.93-2.6-4.24-4.06-2.38-2.64-4.11-5.63-4.89-9.12-.09-.39-.16-.78-.03-1.18,.18-.55,.63-.66,1.02-.25,.56,.59,.85,1.34,1.15,2.07,.58,1.43,1.23,2.83,1.98,4.19,.91,1.63,2.18,2.98,3.44,4.34,2.06,2.23,4.4,4.1,7.07,5.55,1.31,.71,2.7,1.22,4.18,1.44,.53,.08,1.05,.03,1.56-.15,.17-.06,.33-.15,.48-.26,.62-.51,.53-1.34-.2-1.68-.41-.2-.86-.25-1.3-.35-1.38-.3-2.65-.89-3.85-1.6-3.08-1.82-5.96-3.93-8.07-6.88-1.11-1.55-2.15-3.17-2.7-5.05-.24-.81-.67-1.56-1.04-2.32-.48-.98-1.26-1.48-2.33-1.59-1.17-.12-2.29,0-3.32,.62-.93,.56-1.33,1.38-1.36,2.44-.05,1.85,.47,3.56,1.31,5.19,.56,1.09,1.22,2.12,1.91,3.14,.28,.42,.55,.85,.68,1.34,.07,.25,.12,.51-.12,.71-.26,.21-.53,.19-.81,.04-.53-.27-.93-.7-1.32-1.12-.98-1.05-1.69-2.27-2.36-3.53-.88-1.66-1.68-3.36-2.13-5.2-.28-1.12-.3-2.28-.34-3.43,0-.25,0-.49,0-.74h0Z"/>
      <path class="cls-2" d="M44.93,74.42c-4.67-.02-8.97-1.35-12.97-3.71-3.05-1.79-5.74-4.01-8.04-6.7-.29-.34-.42-.75-.45-1.18-.03-.65,.55-1.06,1.15-.8,.45,.19,.8,.5,1.12,.86,1.9,2.14,3.98,4.08,6.36,5.68,2.98,2,6.21,3.4,9.77,3.94,3.95,.59,7.78,.05,11.47-1.43,3.03-1.22,5.64-3.1,8.04-5.27,.98-.89,1.88-1.86,2.76-2.85,.19-.22,.4-.41,.69-.52,.24-.09,.46-.07,.67,.09,.21,.16,.21,.39,.16,.62-.05,.28-.23,.51-.4,.73-2.01,2.54-4.37,4.68-7.07,6.46-2.67,1.76-5.56,3.01-8.7,3.65-.57,.11-1.14,.21-1.72,.28-.94,.12-1.88,.17-2.83,.17h0Z"/>
      <path class="cls-2" d="M44.37,16.23c4.33,0,7.94,.91,11.36,2.57,3.1,1.5,5.87,3.48,8.34,5.88,.66,.64,1.29,1.3,1.87,2,.28,.34,.4,.74,.42,1.16,.03,.62-.58,1.03-1.15,.78-.53-.22-.92-.62-1.3-1.04-1.63-1.85-3.43-3.53-5.44-4.97-2.81-2.02-5.87-3.51-9.28-4.23-3.52-.74-7-.55-10.46,.42-2.86,.8-5.37,2.24-7.76,3.96-1.98,1.43-3.68,3.14-5.29,4.95-.2,.23-.43,.42-.72,.53-.24,.09-.47,.05-.66-.12-.19-.16-.19-.37-.14-.59,.05-.2,.13-.39,.26-.55,4.02-5.02,8.99-8.61,15.31-10.16,1.69-.41,3.41-.59,4.63-.59h0Z"/>
      <path class="cls-5" d="M61.78,45.22c-.04,9.58-7.76,17-16.9,17.04-9.84,.05-17.34-7.96-17.19-17.32,.15-9.37,7.89-16.96,17.41-16.77,9.07,.18,16.66,7.57,16.68,17.05Z"/>
      <path class="cls-2" d="M32.35,51.21c-.09,.2,0,.77,.16,.92,.28,.26,.5-.02,.63-.15,.23-.23,.48-.44,.68-.69,.06-.08,.09-.18,.14-.27,.13,.04,.09,.12,.06,.18-.15,.31-.21,.65-.31,.98-.04,.12-.07,.26,.05,.36,.11,.1,.24,.09,.36,.02,.34-.2,.61-.11,.92,.11,.35,.27,.73,.14,.91-.27,.4,.27,.81,.06,1.2,0,.27-.04,.38-.05,.27,.27-.06,.17-.05,.36-.05,.54,0,.23,.3,.49,.64,.57,.27,.07,.46-.04,.57-.29,.03-.06,.06-.11,.08-.17,.07-.21,.13-.39,.44-.3,.15,.05,.31-.07,.41-.21,.16-.22,.32-.43,.47-.66,.13-.21,0-.47-.33-.71-.08-.06-.23-.09-.09-.22,.11-.09,.07-.39,.35-.26,.21,.1,.42,.08,.62-.01,.15-.07,.31-.09,.47-.09,.31,.02,.41,.13,.37,.43,0,.01,0,.02,0,.03,0,.22-.14,.48,.14,.61,.28,.13,.44-.06,.57-.28,.04-.06,.08-.09,.16-.08,.1,.02,.15,.08,.15,.18,.01,.47,.37,.61,.72,.73,.14,.05,.17,.12,.17,.25-.02,.83,.02,1.66-.07,2.48-.12,1.23-.2,2.46-.26,3.7,0,.19-.13,.28-.26,.38-.79,.62-1.7,.96-2.67,1.12-.11,.02-.22,.03-.32,.07-.9,.34-1.63-.14-2.36-.53-4.66-2.45-7.67-6.22-8.74-11.38-1.13-5.5,.26-10.41,4.03-14.58,2.58-2.86,5.84-4.55,9.65-5.14,8.59-1.34,16.88,4.4,18.64,12.89,1.54,7.45-2,14.79-8.78,18.24-.58,.29-1.16,.41-1.81,.45-1.3,.08-2.49-.26-3.65-.76-.55-.24-.95-.61-1.05-1.27-.25-1.6-.63-3.18-.75-4.8-.06-.76,.35-1.28,.73-1.83,.07-.1,.13-.07,.19,.02,.12,.18,.27,.2,.43,.06,.2-.17,.42-.2,.66-.11,.11,.04,.23,.03,.42,.02-.2,.32-.26,.63-.23,.97,.03,.31,.35,.65,.68,.72,.29,.06,.48-.07,.65-.44,.04-.09,.09-.17,.12-.26,.05-.12,.11-.18,.24-.11,.35,.18,.6,.04,.79-.26,.11-.16,.22-.18,.44-.19,.54-.03,1.14,0,1.56-.45,.11-.11,.16-.19,.31-.03,.16,.17,.37,.12,.49-.07,.15-.24,.27-.18,.44-.01,.23,.24,.5,.44,.73,.68,.17,.18,.32,.17,.5,.03,.17-.13,.32-.14,.45,.09,.14,.26,.4,.19,.64,.16,.1-.01,.21-.09,.29,.03,.08,.13,.18,.22,.35,.16,.18-.07,.18-.22,.17-.38,0-.04,0-.09,0-.13,.43,.18,.71-.06,.69-.59,0-.16-.07-.31,.18-.34,.06,0,.12-.12,.16-.19,.21-.36,.14-1.13-.13-1.46-.02-.01-.03-.03-.02-.05,0-.02,.01-.02,.02-.02,.31,.07,.67-.23,.58-.54-.12-.41-.05-.81-.07-1.21,0-.17,0-.34-.18-.41-.19-.08-.29,.07-.4,.19-.07,.07-.12,.21-.25,.14-.08-.04-.07-.15-.06-.24,.02-.13,.09-.14,.21-.18,.2-.05,.38-.19,.61-.09,.07,.03,.21-.08,.19-.17-.04-.23,.16-.38,.18-.55,.03-.46,.48-.4,.68-.63,.06-.07,.1,.04,.14,.07,.22,.14,.38,.08,.43-.19,.02-.13,.04-.26,.06-.38,0-.06,0-.16,.04-.19,.42-.34,.21-.77,.18-1.17-.01-.18,0-.34-.11-.51-.06-.08,0-.28,.1-.38,.16-.17,.27-.34,.14-.57-.14-.26-.31-.45-.65-.4-.2,.03-.41,0-.63-.08,.28-.28,.14-.49-.08-.73-.31-.33-.56-.71-.48-1.21,.02-.12-.05-.23-.14-.31-.21-.19-.42-.37-.63-.55-.09-.08-.2-.12-.3-.08-.42,.18-.73-.15-1.09-.23-.13-.03-.09-.18-.06-.28,.06-.25,0-.43-.28-.47-.16-.02-.23-.15-.32-.25-.21-.24-.45-.39-.79-.35-.35,.04-.49,.27-.58,.57-.04,.13-.07,.26-.27,.26-.19,0-.23-.12-.29-.25-.1-.21-.11-.51-.34-.6-.3-.13-.5-.34-.73-.56-.32-.3-.59-.59-.72-1.02-.12-.38-.52-.45-.83-.2-.18,.14-.29,.19-.32-.11-.02-.27-.17-.38-.41-.53-.34-.21-.6-.16-.92-.06-.24,.08-.45-.05-.52-.3-.07-.23-.2-.29-.41-.24-.25,.06-.52,.03-.75,.18-.07,.04-.13,.02-.18,0-.44-.2-.86-.1-1.27,.08-.18,.08-.24,.04-.26-.16-.01-.21-.18-.28-.34-.4-.36-.28-.69-.06-1.02-.09-.3-.03-.67-.07-.95-.3-.32-.27-.65-.26-.88,.08-.17,.25-.46,.43-.49,.8-.32-.26-.63-.26-.96-.13-.21,.08-.44,.07-.67,.06-.21-.01-.43-.01-.64,0-.14,0-.3,.08-.3,.24,0,.27-.17,.49-.23,.73-.07,.32-.26,.39-.55,.37-.31-.02-.54,.1-.65,.41-.14,.36-.46,.65-.47,1.07,0,.15-.14,.09-.22,.06-.68-.28-.93-.19-1.26,.52-.09,.18-.13,.31-.38,.21-.12-.05-.27-.02-.41,.03-.33,.12-.67,.21-1.04,.16-.28-.03-.46,.17-.54,.42-.07,.2-.1,.42-.15,.63-.05,.22-.17,.35-.41,.31-.27-.04-.42,.08-.52,.33-.09,.23-.19,.45-.3,.68-.04,.09-.11,.2-.06,.27,.13,.21-.02,.28-.15,.37-.1,.07-.16,.2-.09,.28,.17,.2,.05,.32-.06,.47-.14,.2-.15,.37,.08,.52,.17,.11,.29,.23,.1,.43,0,0-.01,.02-.02,.03,0,.3-.06,.61,.02,.89,.04,.15,.06,.23-.03,.35-.13,.16-.24,.33-.4,.46-.17,.14-.3,.28-.17,.52,.07,.11-.04,.14-.1,.2-.38,.35-.43,.52-.23,.99,.06,.13,.05,.24-.02,.36-.1,.16-.12,.35-.06,.53,.06,.17,.13,.35,.33,.41,.21,.06,.28-.12,.42-.24,0,.24,0,.48,0,.72,0,.33,.1,.41,.41,.36,.19-.03,.4,.17,.32,.34-.12,.24,.2,.71-.39,.71-.11,0-.27,1.04-.2,1.17,.04,.07,.1,.11,.18,.12,.23,.02,.47,.1,.7-.02,.07-.02,.1,.01,.09,.09h0Z"/>
      <path class="cls-2" d="M49.32,61.07c-3.12,.93-6.22,.83-9.38-.08,.74-.18,1.45-.3,2.08-.66,.04-.02,.08-.04,.12-.06,.83-.41,1.37-.92,1.37-2.01,0-1.85,.3-3.7,.27-5.56,0-.17-.01-.34-.04-.51-.07-.35-.19-.4-.53-.22-.02-.18-.04-.32-.25-.43-.19-.09-.36-.3-.45-.5-.18-.41-.23-.45-.56-.18-.02-.54-.05-.55-.6-.5-.37,.03-.75,0-1.11,.15-.12,.05-.19-.06-.26-.14-.2-.22-.35-.23-.51,.02-.13,.21-.25,.34-.53,.3-.25-.03-.4,.15-.32,.4,.1,.33,.23,.66,.62,.76,.22,.06,.21,.16,.09,.32-.14,.19-.22,.37-.55,.29-.37-.08-.49,.26-.57,.57-.3-.13-.28-.32-.19-.59,.17-.52-.16-1-.66-1.04-.23-.02-.38,.07-.35,.3,.04,.28-.16,.23-.29,.26-.17,.04-.24-.06-.25-.24-.03-.3-.29-.35-.52-.39-.24-.03-.26,.18-.29,.35-.03,.15-.03,.3-.18,.4-.15-.42-.25-.44-1.13-.18,0-.17,.06-.32,.12-.46,.27-.6-.02-1.01-.69-.97-.17,.01-.28,.06-.3-.2-.02-.24-.29-.2-.48-.22-.06,0-.13,0-.22,0,.14-.28,.13-.52-.18-.66-.02,0-.05-.03-.05-.04,.12-.27-.11-.5-.07-.76,.06-.44-.03-.53-.45-.42-.08,.02-.16,.04-.27,.06,0-.27,0-.53,0-.79,0-.42-.11-.48-.5-.31-.04,.02-.08,.01-.15,.03,.08-.23,.08-.44-.03-.63-.15-.24-.04-.39,.16-.49,.26-.12,.36-.31,.25-.57-.06-.15,.04-.19,.1-.26,.29-.33,.55-.69,.69-1.12,.02-.06,.07-.15,.05-.18-.32-.39-.04-.95-.38-1.33-.04-.04-.1-.09-.06-.13,.24-.24,.22-.58,.36-.86,.09-.18,.2-.35,.05-.56-.1-.14,.15-.57,.32-.6,.52-.08,.71-.25,.82-.76,0-.04,.02-.08,.02-.13,.04-.32,.12-.55,.53-.46,.15,.03,.34-.04,.5-.09,.25-.08,.47-.16,.74-.02,.25,.12,.47-.03,.59-.34,.1-.25,.52-.49,.79-.45,.23,.03,.45,0,.67-.07,.42-.14,.52-.34,.38-.76-.09-.3,.21-.72,.53-.74,.6-.02,.65-.06,.86-.62,.07-.2,.16-.4,.23-.6,.04-.12,.11-.14,.22-.13,.43,.05,.86,.06,1.27-.11,.12-.05,.2,.04,.29,.11,.31,.23,.56,.17,.77-.17,.08-.13,.07-.31,.26-.37,.42-.13,.83-.23,1.24,.02,.16,.1,.31,.14,.48,.07,.2-.07,.37-.12,.59,.04,.11,.08,.18,.14,.22,.27,.11,.37,.32,.49,.68,.35,.44-.17,.86-.32,1.33-.1,.14,.07,.29-.01,.43-.08,.2-.1,.35-.11,.55,.09,.27,.27,.61,.53,1.06,.3,.22-.11,.55,.1,.63,.36,.12,.42,.49,.62,.87,.43,.27-.13,.34,.11,.41,.21,.21,.3,.41,.6,.74,.8,.08,.05,.07,.15,.1,.23,.07,.17,.18,.33,.36,.33,.29,0,.36,.17,.43,.38,.26,.72,.54,.63,1.14,.6,.24-.01,.28-.24,.35-.41,.19-.5,.27-.5,.63-.11,.22,.23,.44,.44,.42,.79,0,.09,.07,.16,.15,.19,.41,.15,.82,.34,1.25,.42,.22,.04,.41,.04,.59,.21,.15,.13,.17,.26,.13,.42-.03,.15-.06,.3-.08,.44-.02,.13,.01,.28,.14,.29,.33,.01,.35,.35,.55,.48,.11,.07,0,.14-.03,.22-.17,.35-.06,.6,.32,.71,.25,.07,.5,.11,.76,.12,.07,0,.2-.05,.19,.09,0,.1-.07,.16-.2,.14-.2-.02-.25,.11-.3,.29-.11,.43,.06,.75,.36,1.02,.12,.11,.2,.19-.05,.24-.28,.05-.34,.23-.23,.48,.02,.04,.04,.11,.04,.11-.23,.11-.47,.3-.71,.3-.4,0-.63,.12-.63,.53,0,.29-.15,.43-.4,.51-.53,.18-.88,1.17-.57,1.64,.13,.19,.31,.31,.55,.26,.19-.04,.22,.04,.21,.19-.01,.14,.06,.31-.21,.27-.25-.03-.5,.03-.63,.3-.13,.28,.02,.5,.19,.7,.24,.27,.34,.49,.39,.92-.38-.15-.49,.08-.54,.41-.22-.14-.21-.47-.46-.52-.31-.07-.38,.16-.42,.43-.19-.1-.36-.21-.53-.29-.27-.13-.44-.02-.43,.29,0,.07,.02,.15,.02,.22,0,.14,.13,.34-.03,.41-.21,.09-.46,.13-.67-.09-.21-.23-.44-.44-.67-.66-.1-.1-.22-.2-.37-.13-.13,.06-.14,0-.18-.1-.1-.21-.26-.24-.45-.1-.21,.15-.38,.34-.5,.58-.16,.32-.68,.54-1.02,.47-.1-.02-.08-.08-.08-.14,0-.22,.02-.43,.11-.65,.14-.33,.25-.7,.03-1.07-.14-.24-.29-.27-.49-.09-.09,.08-.2,.16-.24,.26-.18,.51-.32,1.04-.18,1.58,.05,.19-.09,.21-.14,.31-.15,.28-.34,.4-.67,.22-.21-.11-.37,.03-.47,.22-.09,.16-.16,.32-.25,.48-.1-.09-.07-.26-.2-.29-.18-.05-.15-.16-.07-.26,.32-.37,.16-.78,.07-1.17-.05-.2-.56-.44-.75-.37-.12,.04-.16,.13-.18,.24-.02,.1,.09,.29-.14,.29-.22,0-.48,.08-.62-.2-.15-.29-.33-.31-.51-.05-.27,.38-.52,.77-.79,1.14-.32,.45-.42,.95-.4,1.49,.08,1.56,.47,3.08,.69,4.62,.12,.82,.42,1.48,1.16,1.84,.91,.43,1.85,.8,2.87,.92,.07,.08,.23-.07,.25,.11h0Z"/>
      <path class="cls-4" d="M56.82,49.63s0,.05,0,.07c-.07-.06-.15-.11-.22-.18-.05-.04-.1-.08-.1-.16,.13,0,.24,.08,.32,.26h0Z"/>
      <path class="cls-8" d="M33.34,50.7c.02,.11,.09,.22-.02,.3-.02,.01-.1,0-.11-.03-.07-.14,.08-.18,.13-.28Z"/>
      <path class="cls-7" d="M49.32,61.07c-.08-.03-.17-.07-.25-.11h.5s0,.02,.01,.04c-.09,.02-.17,.05-.26,.07h0Z"/>
      <path class="cls-1" d="M32.35,51.21s-.06-.06-.09-.09c.05-.06,.09-.13,.2-.11,0,.09-.05,.14-.11,.19h0Z"/>
      <ellipse class="cls-6" cx="45" cy="45" rx="42.75" ry="42.49"/>
    </g>
  </g>
			<animateTransform attributeName="transform" type="rotate" dur=".8s" values="0 0 0;360 0 0;" repeatCount="indefinite"/>
			<!-- Return by adding ";0 16 0;"-->
</svg>